<svg width="42" height="42" viewBox="0 0 42 42" fill="none" xmlns="http://www.w3.org/2000/svg">
<rect width="42" height="42" rx="9.76744" fill="#262525"/>
<g clip-path="url(#clip0_1_238)">
<path d="M15.9072 16.2424H11.7211V29.3019H15.9072V16.2424Z" fill="white"/>
<path d="M11.7204 12.7608C11.7204 11.6312 12.5344 10.7437 13.7553 10.7437C14.9762 10.7437 15.7223 11.6312 15.7902 12.7608C15.7902 13.8905 15.044 14.778 13.7553 14.778C12.5344 14.778 11.7204 13.8905 11.7204 12.7608Z" fill="#262525"/>
<path d="M31.2562 29.3019H27.0701C27.0701 29.3019 27.0701 22.9096 27.0701 22.4285C27.0701 21.0538 26.3725 19.6791 24.6283 19.6791H24.5585C22.8841 19.6791 22.1864 21.0538 22.1864 22.4285C22.1864 23.0471 22.1864 29.3019 22.1864 29.3019H18.0004V16.2424H22.1864V18.0295C22.1864 18.0295 23.512 16.2424 26.2329 16.2424C29.0236 16.2424 31.2562 18.0982 31.2562 21.9473V29.3019Z" fill="white"/>
</g>
<defs>
<clipPath id="clip0_1_238">
<rect width="19.5349" height="18.5581" fill="white" transform="translate(11.7204 10.7437)"/>
</clipPath>
</defs>
</svg>
